<?xml version="1.0" encoding="UTF-8" standalone="no"?>
<svg
     xmlns:dc="http://purl.org/dc/elements/1.1/"
     xmlns:cc="http://creativecommons.org/ns#"
     xmlns:rdf="http://www.w3.org/1999/02/22-rdf-syntax-ns#"
     xmlns:svg="http://www.w3.org/2000/svg"
     xmlns="http://www.w3.org/2000/svg"
     xmlns:sodipodi="http://sodipodi.sourceforge.net/DTD/sodipodi-0.dtd"
     xmlns:inkscape="http://www.inkscape.org/namespaces/inkscape"
     width="128.0px"
     height="128.0px"
     viewBox="0 0 128.0 128.0"
     version="1.1"
     id="SVGRoot"
     sodipodi:docname="favicon2.svg"
     inkscape:version="1.0.1 (3bc2e813f5, 2020-09-07, custom)">
    <defs
         id="defs20" />
    <sodipodi:namedview
         id="base"
         pagecolor="#ffffff"
         bordercolor="#666666"
         borderopacity="1.0"
         inkscape:pageopacity="0.0"
         inkscape:pageshadow="2"
         inkscape:zoom="3.959798"
         inkscape:cx="77.299773"
         inkscape:cy="68.160625"
         inkscape:document-units="px"
         inkscape:current-layer="layer1"
         inkscape:document-rotation="0"
         showgrid="true"
         inkscape:window-width="1920"
         inkscape:window-height="1024"
         inkscape:window-x="0"
         inkscape:window-y="28"
         inkscape:window-maximized="1"
         inkscape:snap-page="false">
        <inkscape:grid
             type="xygrid"
             id="grid29" />
    </sodipodi:namedview>
    <metadata
         id="metadata23">
        <rdf:RDF>
            <cc:Work
                 rdf:about="">
                <dc:format>image/svg+xml</dc:format>
                <dc:type
                     rdf:resource="http://purl.org/dc/dcmitype/StillImage" />
                <dc:title></dc:title>
            </cc:Work>
        </rdf:RDF>
    </metadata>
    <g
         inkscape:label="Layer 1"
         inkscape:groupmode="layer"
         id="layer1">
        <g
             id="g883"
             transform="matrix(0.862653,0,0,0.862653,10.504701,-362.43494)"
             style="display:inline;opacity:1">
            <path
                 id="rect694"
                 style="display:inline;opacity:1;mix-blend-mode:normal;fill:#a02c2c;fill-opacity:0.999249;stroke:none;stroke-width:5.29167;paint-order:stroke fill markers"
                 d="m 11.11673,420.39676 c 34.890816,0.0759 69.791186,-0.15242 104.67598,0.11528 12.14346,0.89072 21.43766,12.84304 20.11277,24.79321 -0.0759,34.05814 0.15237,68.12582 -0.11528,102.17793 -0.89073,12.14345 -12.84304,21.43766 -24.79321,20.11277 -34.058137,-0.0759 -68.125819,0.15237 -102.1779318,-0.11528 -12.1434534,-0.89073 -21.4376562,-12.84304 -20.1127672,-24.79321 0.07585,-34.05814 -0.152366,-68.12582 0.11528,-102.17793 0.925772,-11.18098 11.07314713,-20.33455 22.295159,-20.11277 z" />
            <g
                 id="g752"
                 transform="matrix(0.72622964,0,0,0.72622964,-111.1769,396.54443)"
                 style="fill:#000000">
                <path
                     id="path748"
                     style="opacity:1;fill:#000000;fill-opacity:0.999249;stroke:none;stroke-width:5.63268;paint-order:stroke fill markers"
                     d="m 231.92171,56.858109 c 4.63982,0 9.27965,0 13.91947,0 1.65371,5.268486 -3.35097,3.878587 -6.87951,3.964823 -3.1124,-0.380842 -8.69787,1.711389 -7.03996,-3.439757 z m 0.7438,3.726318 c 4.14395,0 8.2879,0 12.43185,0 0,12.024099 0,24.048197 0,36.072296 -4.14395,0 -8.2879,0 -12.43185,0 0,-12.024099 0,-24.048197 0,-36.072296 z m -8.10709,36.072299 c 10.2709,0.18765 20.597,-0.390198 30.83045,0.316732 11.09264,4.829272 11.45306,23.016122 2.0321,29.745872 -6.78828,2.34989 -14.29133,0.76134 -21.41528,1.22562 -6.88183,-0.38532 -16.07791,2.03598 -19.79662,-5.68186 -4.44083,-8.08121 -3.2656,-21.38341 6.16495,-25.289632 z m -10.81239,15.644114 c 16.75694,0 33.51389,0 50.27083,0 0,33.07292 0,66.14583 0,99.21875 -16.75694,0 -33.51389,0 -50.27083,0 0,-33.07292 0,-66.14583 0,-99.21875 z" />
                <path
                     id="path750"
                     style="opacity:1;fill:#000000;fill-opacity:0.999249;stroke:none;stroke-width:5.63268;paint-order:stroke fill markers"
                     d="m 231.92171,56.858109 c 4.63982,0 9.27965,0 13.91947,0 1.65371,5.268486 -3.35097,3.878587 -6.87951,3.964823 -3.1124,-0.380842 -8.69787,1.711389 -7.03996,-3.439757 z m 0.7438,3.726318 c 4.14395,0 8.2879,0 12.43185,0 0,12.024099 0,24.048197 0,36.072296 -4.14395,0 -8.2879,0 -12.43185,0 0,-12.024099 0,-24.048197 0,-36.072296 z m -8.10709,36.072299 c 10.2709,0.18765 20.597,-0.390198 30.83045,0.316732 11.09264,4.829272 11.45306,23.016122 2.0321,29.745872 -6.78828,2.34989 -14.29133,0.76134 -21.41528,1.22562 -6.88183,-0.38532 -16.07791,2.03598 -19.79662,-5.68186 -4.44083,-8.08121 -3.2656,-21.38341 6.16495,-25.289632 z m -10.81239,15.644114 c 16.75694,0 33.51389,0 50.27083,0 0,33.07292 0,66.14583 0,99.21875 -16.75694,0 -33.51389,0 -50.27083,0 0,-33.07292 0,-66.14583 0,-99.21875 z" />
            </g>
            <g
                 id="g758"
                 transform="matrix(0.72622964,0,0,0.72622964,-116.43202,392.83185)"
                 style="fill:#ffffff">
                <path
                     id="path754"
                     style="opacity:1;fill:#ffffff;fill-opacity:0.999249;stroke:none;stroke-width:5.63268;paint-order:stroke fill markers"
                     d="m 231.92171,56.858109 c 4.63982,0 9.27965,0 13.91947,0 1.65371,5.268486 -3.35097,3.878587 -6.87951,3.964823 -3.1124,-0.380842 -8.69787,1.711389 -7.03996,-3.439757 z m 0.7438,3.726318 c 4.14395,0 8.2879,0 12.43185,0 0,12.024099 0,24.048197 0,36.072296 -4.14395,0 -8.2879,0 -12.43185,0 0,-12.024099 0,-24.048197 0,-36.072296 z m -8.10709,36.072299 c 10.2709,0.18765 20.597,-0.390198 30.83045,0.316732 11.09264,4.829272 11.45306,23.016122 2.0321,29.745872 -6.78828,2.34989 -14.29133,0.76134 -21.41528,1.22562 -6.88183,-0.38532 -16.07791,2.03598 -19.79662,-5.68186 -4.44083,-8.08121 -3.2656,-21.38341 6.16495,-25.289632 z m -10.81239,15.644114 c 16.75694,0 33.51389,0 50.27083,0 0,33.07292 0,66.14583 0,99.21875 -16.75694,0 -33.51389,0 -50.27083,0 0,-33.07292 0,-66.14583 0,-99.21875 z" />
                <path
                     id="path756"
                     style="opacity:1;fill:#ffffff;fill-opacity:0.999249;stroke:none;stroke-width:5.63268;paint-order:stroke fill markers"
                     d="m 231.92171,56.858109 c 4.63982,0 9.27965,0 13.91947,0 1.65371,5.268486 -3.35097,3.878587 -6.87951,3.964823 -3.1124,-0.380842 -8.69787,1.711389 -7.03996,-3.439757 z m 0.7438,3.726318 c 4.14395,0 8.2879,0 12.43185,0 0,12.024099 0,24.048197 0,36.072296 -4.14395,0 -8.2879,0 -12.43185,0 0,-12.024099 0,-24.048197 0,-36.072296 z m -8.10709,36.072299 c 10.2709,0.18765 20.597,-0.390198 30.83045,0.316732 11.09264,4.829272 11.45306,23.016122 2.0321,29.745872 -6.78828,2.34989 -14.29133,0.76134 -21.41528,1.22562 -6.88183,-0.38532 -16.07791,2.03598 -19.79662,-5.68186 -4.44083,-8.08121 -3.2656,-21.38341 6.16495,-25.289632 z m -10.81239,15.644114 c 16.75694,0 33.51389,0 50.27083,0 0,33.07292 0,66.14583 0,99.21875 -16.75694,0 -33.51389,0 -50.27083,0 0,-33.07292 0,-66.14583 0,-99.21875 z" />
            </g>
        </g>
    </g>
</svg>
